solid MakerVR_Export
  facet normal -1 0 0
    outer loop
      vertex -2 -4 3
      vertex -2 4 3
      vertex -2 -4 -3
    endloop  endfacet
  facet normal -1 0 0
    outer loop
      vertex -2 4 3
      vertex -2 4 -3
      vertex -2 -4 -3
    endloop  endfacet
  facet normal 0 0 -1
    outer loop
      vertex -2 -4 -3
      vertex -2 4 -3
      vertex 2 -4 -3
    endloop  endfacet
  facet normal 0 0 -1
    outer loop
      vertex -2 4 -3
      vertex 2 4 -3
      vertex 2 -4 -3
    endloop  endfacet
  facet normal 1 0 0
    outer loop
      vertex 2 -4 3
      vertex 2 -4 -3
      vertex 2 4 3
    endloop  endfacet
  facet normal 1 0 0
    outer loop
      vertex 2 4 -3
      vertex 2 4 3
      vertex 2 -4 -3
    endloop  endfacet
  facet normal 0 0 1
    outer loop
      vertex -2 -4 3
      vertex 2 -4 3
      vertex 2 4 3
    endloop  endfacet
  facet normal 0 0 1
    outer loop
      vertex -2 4 3
      vertex -2 -4 3
      vertex 2 4 3
    endloop  endfacet
  facet normal 0 1 0
    outer loop
      vertex -2 4 3
      vertex 2 4 3
      vertex 2 4 -3
    endloop  endfacet
  facet normal 0 1 0
    outer loop
      vertex -2 4 3
      vertex 2 4 -3
      vertex -2 4 -3
    endloop  endfacet
  facet normal 0 -1 0
    outer loop
      vertex -2 -4 3
      vertex -2 -4 -3
      vertex 2 -4 -3
    endloop  endfacet
  facet normal 0 -1 0
    outer loop
      vertex -2 -4 3
      vertex 2 -4 -3
      vertex 2 -4 3
    endloop  endfacet
endsolid MakerVR_Export
