solid MakerVR_Export
  facet normal 0 0 1
    outer loop
      vertex 10.57 2.89 10
      vertex -8.2 2.89 10
      vertex 10.57 -1.83 10
    endloop
  endfacet
  facet normal 0 0 1
    outer loop
      vertex -8.2 2.89 10
      vertex -8.2 -1.83 10
      vertex 10.57 -1.83 10
    endloop
  endfacet
  facet normal 0 0 1
    outer loop
      vertex -13.49 -20 10
      vertex -8.2 -1.83 10
      vertex -13.49 20 10
    endloop
  endfacet
  facet normal 0 0 1
    outer loop
      vertex -13.49 20 10
      vertex -8.2 -1.83 10
      vertex -8.2 2.89 10
    endloop
  endfacet
  facet normal 0 0 1
    outer loop
      vertex -13.49 20 10
      vertex -8.2 2.89 10
      vertex -8.2 15.28 10
    endloop
  endfacet
  facet normal 0 0 1
    outer loop
      vertex 13.49 20 10
      vertex -8.2 15.28 10
      vertex 13.49 15.28 10
    endloop
  endfacet
  facet normal 0 0 1
    outer loop
      vertex -13.49 20 10
      vertex -8.2 15.28 10
      vertex 13.49 20 10
    endloop
  endfacet
  facet normal 0 0 1
    outer loop
      vertex -13.49 -20 10
      vertex -8.2 -20 10
      vertex -8.2 -1.83 10
    endloop
  endfacet
  facet normal 0 0 -1
    outer loop
      vertex -8.2 -1.83 -10
      vertex -8.2 -20 -10
      vertex -13.49 -20 -10
    endloop
  endfacet
  facet normal 0 0 -1
    outer loop
      vertex 13.49 20 -10
      vertex -8.2 15.28 -10
      vertex -13.49 20 -10
    endloop
  endfacet
  facet normal 0 0 -1
    outer loop
      vertex 13.49 15.28 -10
      vertex -8.2 15.28 -10
      vertex 13.49 20 -10
    endloop
  endfacet
  facet normal 0 0 -1
    outer loop
      vertex -8.2 15.28 -10
      vertex -8.2 2.89 -10
      vertex -13.49 20 -10
    endloop
  endfacet
  facet normal 0 0 -1
    outer loop
      vertex -8.2 2.89 -10
      vertex -8.2 -1.83 -10
      vertex -13.49 20 -10
    endloop
  endfacet
  facet normal 0 0 -1
    outer loop
      vertex -13.49 20 -10
      vertex -8.2 -1.83 -10
      vertex -13.49 -20 -10
    endloop
  endfacet
  facet normal 0 0 -1
    outer loop
      vertex 10.57 -1.83 -10
      vertex -8.2 -1.83 -10
      vertex -8.2 2.89 -10
    endloop
  endfacet
  facet normal 0 0 -1
    outer loop
      vertex 10.57 -1.83 -10
      vertex -8.2 2.89 -10
      vertex 10.57 2.89 -10
    endloop
  endfacet
  facet normal 1 0 0
    outer loop
      vertex -8.2 -1.83 10
      vertex -8.2 -20 10
      vertex -8.2 -20 -10
    endloop
  endfacet
  facet normal 1 0 0
    outer loop
      vertex -8.2 -1.83 10
      vertex -8.2 -20 -10
      vertex -8.2 -1.83 -10
    endloop
  endfacet
  facet normal 0 -1 0
    outer loop
      vertex 10.57 -1.83 10
      vertex -8.2 -1.83 10
      vertex -8.2 -1.83 -10
    endloop
  endfacet
  facet normal 0 -1 0
    outer loop
      vertex 10.57 -1.83 10
      vertex -8.2 -1.83 -10
      vertex 10.57 -1.83 -10
    endloop
  endfacet
  facet normal 1 0 0
    outer loop
      vertex 10.57 2.89 10
      vertex 10.57 -1.83 10
      vertex 10.57 -1.83 -10
    endloop
  endfacet
  facet normal 1 0 0
    outer loop
      vertex 10.57 2.89 10
      vertex 10.57 -1.83 -10
      vertex 10.57 2.89 -10
    endloop
  endfacet
  facet normal 0 1 0
    outer loop
      vertex -8.2 2.89 10
      vertex 10.57 2.89 10
      vertex 10.57 2.89 -10
    endloop
  endfacet
  facet normal 0 1 0
    outer loop
      vertex -8.2 2.89 10
      vertex 10.57 2.89 -10
      vertex -8.2 2.89 -10
    endloop
  endfacet
  facet normal 1 0 0
    outer loop
      vertex -8.2 15.28 10
      vertex -8.2 2.89 10
      vertex -8.2 2.89 -10
    endloop
  endfacet
  facet normal 1 0 0
    outer loop
      vertex -8.2 15.28 10
      vertex -8.2 2.89 -10
      vertex -8.2 15.28 -10
    endloop
  endfacet
  facet normal 0 -1 0
    outer loop
      vertex 13.49 15.28 10
      vertex -8.2 15.28 10
      vertex -8.2 15.28 -10
    endloop
  endfacet
  facet normal 0 -1 0
    outer loop
      vertex 13.49 15.28 10
      vertex -8.2 15.28 -10
      vertex 13.49 15.28 -10
    endloop
  endfacet
  facet normal 1 0 0
    outer loop
      vertex 13.49 20 10
      vertex 13.49 15.28 10
      vertex 13.49 15.28 -10
    endloop
  endfacet
  facet normal 1 0 0
    outer loop
      vertex 13.49 20 10
      vertex 13.49 15.28 -10
      vertex 13.49 20 -10
    endloop
  endfacet
  facet normal 0 1 0
    outer loop
      vertex -13.49 20 10
      vertex 13.49 20 10
      vertex 13.49 20 -10
    endloop
  endfacet
  facet normal 0 1 0
    outer loop
      vertex -13.49 20 10
      vertex 13.49 20 -10
      vertex -13.49 20 -10
    endloop
  endfacet
  facet normal -1 0 0
    outer loop
      vertex -13.49 -20 10
      vertex -13.49 20 10
      vertex -13.49 20 -10
    endloop
  endfacet
  facet normal -1 0 0
    outer loop
      vertex -13.49 -20 10
      vertex -13.49 20 -10
      vertex -13.49 -20 -10
    endloop
  endfacet
  facet normal 0 -1 0
    outer loop
      vertex -8.2 -20 10
      vertex -13.49 -20 10
      vertex -13.49 -20 -10
    endloop
  endfacet
  facet normal 0 -1 0
    outer loop
      vertex -8.2 -20 10
      vertex -13.49 -20 -10
      vertex -8.2 -20 -10
    endloop
  endfacet
endsolid MakerVR_Export
