solid EasyMaker3D_Export
  facet normal 0 -1 0
    outer loop
      vertex -5 -5 -5
      vertex 5 -5 -5
      vertex -5 -5 5
    endloop
  endfacet
  facet normal 0 -1 0
    outer loop
      vertex 1 -5 0
      vertex 1 -5 5
      vertex -5 -5 5
    endloop
  endfacet
  facet normal 0 -1 0
    outer loop
      vertex 5 -5 -5
      vertex 1 -5 0
      vertex -5 -5 5
    endloop
  endfacet
  facet normal 0 -1 0
    outer loop
      vertex 5 -5 0
      vertex 1 -5 0
      vertex 5 -5 -5
    endloop
  endfacet
  facet normal -1 0 0
    outer loop
      vertex -5 -5 -5
      vertex -5 -5 5
      vertex -5 5 -5
    endloop
  endfacet
  facet normal -1 0 0
    outer loop
      vertex -5 -5 5
      vertex -5 5 5
      vertex -5 5 -5
    endloop
  endfacet
  facet normal 0 0 -1
    outer loop
      vertex -5 5 -5
      vertex 5 -5 -5
      vertex -5 -5 -5
    endloop
  endfacet
  facet normal 0 0 -1
    outer loop
      vertex 5 5 -5
      vertex 5 -5 -5
      vertex -5 5 -5
    endloop
  endfacet
  facet normal 1 0 0
    outer loop
      vertex 5 5 -5
      vertex 5 -5 0
      vertex 5 -5 -5
    endloop
  endfacet
  facet normal 1 0 0
    outer loop
      vertex 5 5 0
      vertex 5 -5 0
      vertex 5 5 -5
    endloop
  endfacet
  facet normal 0 0 1
    outer loop
      vertex 5 5 0
      vertex 1 5 0
      vertex 5 -5 0
    endloop
  endfacet
  facet normal 0 0 1
    outer loop
      vertex 1 5 0
      vertex 1 -5 0
      vertex 5 -5 0
    endloop
  endfacet
  facet normal 1 0 0
    outer loop
      vertex 1 -5 5
      vertex 1 5 0
      vertex 1 5 5
    endloop
  endfacet
  facet normal 1 0 0
    outer loop
      vertex 1 -5 0
      vertex 1 5 0
      vertex 1 -5 5
    endloop
  endfacet
  facet normal 0 0 1
    outer loop
      vertex -5 -5 5
      vertex 1 -5 5
      vertex -5 5 5
    endloop
  endfacet
  facet normal 0 0 1
    outer loop
      vertex 1 -5 5
      vertex 1 5 5
      vertex -5 5 5
    endloop
  endfacet
  facet normal 0 1 0
    outer loop
      vertex -5 5 5
      vertex 5 5 -5
      vertex -5 5 -5
    endloop
  endfacet
  facet normal 0 1 0
    outer loop
      vertex 1 5 0
      vertex 5 5 -5
      vertex -5 5 5
    endloop
  endfacet
  facet normal 0 1 0
    outer loop
      vertex 5 5 0
      vertex 5 5 -5
      vertex 1 5 0
    endloop
  endfacet
  facet normal 0 1 0
    outer loop
      vertex 1 5 0
      vertex -5 5 5
      vertex 1 5 5
    endloop
  endfacet
endsolid EasyMaker3D_Export
